<svg xmlns="http://www.w3.org/2000/svg" viewBox="0 0 64 64" width="64" height="64">
  <defs>
    <linearGradient id="bg-grad-fdx" x1="0%" y1="0%" x2="0%" y2="100%">
      <stop offset="0%" stop-color="#1E293B" stop-opacity="0.95"/>
      <stop offset="100%" stop-color="#0F172A" stop-opacity="0.95"/>
    </linearGradient>
    <filter id="shadow-fdx" x="-20%" y="-20%" width="140%" height="140%">
      <feDropShadow dx="0" dy="2" stdDeviation="1.5" flood-color="#000000" flood-opacity="0.5"/>
    </filter>
  </defs>

  <!-- Perfect 6-Sided Symmetric Hexagonal Badge Frame -->
  <polygon 
    points="32,4 56,18 56,46 32,60 8,46 8,18" 
    fill="url(#bg-grad-fdx)" 
    stroke="#2BB673" 
    stroke-width="2.5" 
    stroke-linejoin="round"
    filter="url(#shadow-fdx)"
  />

  <!-- Perfectly Centered Vector Logo (centered around y=25.5) -->
  <g fill="#2BB673">
  <!-- White circular emblem background behind script 'f' -->
  <circle cx="32" cy="24.5" r="11" fill="#F8FAFC" fill-opacity="0.9" stroke="#2BB673" stroke-width="1.6"/>
  <!-- Official Final Draft script 'f' ribbon shape -->
  <path d="M 33 16 C 37 16 38.5 18 36 20 C 33.5 22 31 24.5 31 27.5 C 31 31 31.5 33 28.5 33 C 27 33 26 32 27 30.5 C 28.5 28 29.5 25 29.5 22.5 C 29.5 19 31 16 33 16 Z"/>
  <!-- Horizontal pen/quill crossing the script 'f' -->
  <path d="M 23 23 L 39 21.5 L 41 23.5 L 38.5 25 L 23 25 Z"/>
</g>

  <!-- Optimal Positioned & Sized Format Title (y=46.5) -->
  <text 
    x="32" 
    y="46.5" 
    text-anchor="middle" 
    fill="#F8FAFC" 
    font-family="-apple-system, BlinkMacSystemFont, 'Segoe UI', Roboto, sans-serif" 
    font-size="9.0" 
    font-weight="700" 
    letter-spacing="0.4"
  >FDX</text>
</svg>