<svg xmlns="http://www.w3.org/2000/svg" viewBox="0 0 64 64" width="64" height="64">
  <defs>
    <linearGradient id="bg-grad-alembic" x1="0%" y1="0%" x2="0%" y2="100%">
      <stop offset="0%" stop-color="#1E293B" stop-opacity="0.95"/>
      <stop offset="100%" stop-color="#0F172A" stop-opacity="0.95"/>
    </linearGradient>
    <filter id="shadow-alembic" x="-20%" y="-20%" width="140%" height="140%">
      <feDropShadow dx="0" dy="2" stdDeviation="1.5" flood-color="#000000" flood-opacity="0.5"/>
    </filter>
  </defs>

  <!-- Perfect 6-Sided Symmetric Hexagonal Badge Frame -->
  <polygon 
    points="32,4 56,18 56,46 32,60 8,46 8,18" 
    fill="url(#bg-grad-alembic)" 
    stroke="#0096D6" 
    stroke-width="2.5" 
    stroke-linejoin="round"
    filter="url(#shadow-alembic)"
  />

  <!-- Perfectly Centered Vector Logo (centered around y=25.5) -->
  <g transform="translate(19.5, 12) scale(0.125)">
  <path fill="#0096D6" d="m99.383 5.022c-21.76 0-37.434 5.251-53.289 17.744-6.529 5.142-14.443 16.223-16.619 24.734-3 11.719-7.123 49.464 39.176 60.149 33.238 5.937 35.349-22.289 70.83-20.182 21.369 3.166 30.8 19.586 27.156 38.241-6.6 27.556-35.807 26.711-46.742 15.774-5.539-5.54-7.377-16.827.261-25.522 5.737-6.529 13.651-7.16 19.786-3.958 4.55 2.375 6.2 6.578 5.146 10.289-1.586 5.54-7.98 6.6-16.424 2.77 5.28 9.366 20.447 10.684 24.93-.395 2.375-8.112-.385-17.288-10.354-23.151-6.728-3.957-19.326-3.757-30.009 4.419-10.936 8.371-16.287 22.687-9.955 36.734 4.624 10.267 14.52 20.773 34.435 20.263a85.554 85.554 0 0 1 -14.133 7.339c-48.968 11.242-64.917-14.591-63.633-28.194.92-8.574 9.364-13.057 15.827-12.4 8.937.91 11.923 11.341 10.021 17.149 11.082-7.916 3.942-26.292-12.139-26.606-12.833-.25-23.222 7.814-25.32 20.01-1.626 9.47 1.543 17.8 7.12 24.6a82.945 82.945 0 0 1 -10.094-6.212c-9.809-7.9-20.384-22.71-18.657-36.725 1.254-10.179 7.158-15.366 15.692-12.842-7.973-8.922-19.209-2.657-22.2 6.542a29.385 29.385 0 0 0 -1.344 9.883 89.116 89.116 0 0 1 -6.781-28.315c-.8-11.673 1.772-27.3 8.563-35.812-7.582 5.736-13.584 21.352-13.584 36.007a92.333 92.333 0 1 0 92.334-92.333zm41.978 58.158c-5.232-.745-9.595-4.405-9.08-8.041a7.873 7.873 0 0 1 5.729-6.939c6.4-2.06 18.494 1.308 24.619 18.916-6.248-8.401-13.416-2.816-21.268-3.936z"/>
</g>

  <!-- Optimal Positioned & Sized Format Title (y=46.5) -->
  <text 
    x="32" 
    y="46.5" 
    text-anchor="middle" 
    fill="#F8FAFC" 
    font-family="-apple-system, BlinkMacSystemFont, 'Segoe UI', Roboto, sans-serif" 
    font-size="9.0" 
    font-weight="700" 
    letter-spacing="0.4"
  >ABC</text>
</svg>